<?xml version="1.0" standalone="no"?>
<!DOCTYPE svg PUBLIC "-//W3C//DTD SVG 20010904//EN"
 "http://www.w3.org/TR/2001/REC-SVG-20010904/DTD/svg10.dtd">
<svg version="1.0" xmlns="http://www.w3.org/2000/svg"
 width="78.000000pt" height="85.000000pt" viewBox="0 0 78.000000 85.000000"
 preserveAspectRatio="xMidYMid meet">

<g transform="translate(0.000000,85.000000) scale(0.100000,-0.100000)"
fill="#000000" stroke="none">
<path d="M0 425 l0 -425 390 0 390 0 0 425 0 425 -390 0 -390 0 0 -425z m730
-5 l0 -360 -330 0 -330 0 0 360 0 360 330 0 330 0 0 -360z"/>
<path d="M110 420 l0 -320 290 0 290 0 0 320 0 320 -290 0 -290 0 0 -320z
m334 74 c19 -18 20 -36 5 -51 -9 -9 -6 -19 10 -39 23 -29 21 -60 -7 -81 -9 -8
-44 -13 -81 -13 -57 1 -64 2 -48 14 24 18 25 153 1 163 -27 10 5 23 58 23 29
0 52 -6 62 -16z"/>
<path d="M370 460 c0 -27 3 -31 23 -28 16 2 22 10 22 28 0 18 -6 26 -22 28
-20 3 -23 -1 -23 -28z"/>
<path d="M370 370 c0 -35 3 -40 23 -40 45 0 65 50 28 70 -38 20 -51 13 -51
-30z"/>
</g>
</svg>
